<svg data-v-0dd9719b="" version="1.0" xmlns="http://www.w3.org/2000/svg" xmlns:xlink="http://www.w3.org/1999/xlink" width="100%" height="100%" viewBox="0 0 340.000000 250.000000" preserveAspectRatio="xMidYMid meet" color-interpolation-filters="sRGB" style="margin: auto;"> <rect data-v-0dd9719b="" x="0" y="0" width="100%" height="100%" fill="#ffffff" fill-opacity="1" class="background"></rect> <rect data-v-0dd9719b="" x="0" y="0" width="100%" height="100%" fill="url(#watermark)" fill-opacity="1" class="watermarklayer"></rect> <g data-v-0dd9719b="" fill="#1ba0d8" class="icon-text-wrapper icon-svg-group iconsvg" transform="translate(49.36000061035156,94.18684196472168)"><g class="iconsvg-imagesvg" transform="translate(0,0)"><g><rect fill="#1ba0d8" fill-opacity="0" stroke-width="2" x="0" y="0" width="60" height="61.626318546440565" class="image-rect"></rect> <svg filter="url(#colors3699289187)" x="0" y="0" width="60" height="61.626318546440565" filtersec="colorsf2515213007" class="image-svg-svg primary" style="overflow: visible;"><svg xmlns="http://www.w3.org/2000/svg" data-name="Layer 1" viewBox="5.6699419021606445 4.537322044372559 88.57691955566406 90.97752380371094" x="0px" y="0px"><title>Yunnan Province</title><path d="M47.42,95.5a.52.52,0,0,1-.38-.17l-.83-.92-.48.84a.51.51,0,0,1-.47.25.49.49,0,0,1-.43-.31l-.78-1.91-1,.13a.48.48,0,0,1-.39-.12.47.47,0,0,1-.17-.37l-.05-2.6-.81-1.46-.27.57a.5.5,0,0,1-.45.28H39.26l-.06,1.06a.5.5,0,0,1-.25.4l-2.21,1.3a.5.5,0,0,1-.55,0l-1.51-1.12-2.26,1.16a.51.51,0,0,1-.42,0,.52.52,0,0,1-.29-.31l-.6-1.94-.58.29a.49.49,0,0,1-.51,0,.5.5,0,0,1-.22-.45l.31-3.67-.94-1-2.9-.68-1.89.3a.48.48,0,0,1-.45-.16l-1.06-1.2a.5.5,0,0,1-.12-.42l.42-2.32a.5.5,0,0,1,.31-.38l1.15-.43V78.93l-.94-1.55a.52.52,0,0,1,0-.42.49.49,0,0,1,.29-.31l1.53-.59.22-1.31-.89-.49-1.63.21a.5.5,0,0,1-.43-.16.49.49,0,0,1-.12-.45l.17-.82-2.64.22a.43.43,0,0,1-.39-.14.46.46,0,0,1-.15-.38L19.77,70,19,69.6a.48.48,0,0,1-.27-.5l.19-1.6-1-.49a.5.5,0,0,1-.27-.53l.32-2a.46.46,0,0,1,.08-.19l1-1.47-.06-.2-.58.51a.49.49,0,0,1-.46.11l-1.66-.46-2.47-1.06-1.28.44-.83,1.2a.49.49,0,0,1-.41.22H10l-.54,1a.51.51,0,0,1-.44.26H6.17a.5.5,0,0,1-.37-.83l1.35-1.49.43-1.65-.79-.5a.47.47,0,0,1-.18-.19L5.73,58.6a.6.6,0,0,1-.06-.27l.14-2.64a.51.51,0,0,1,.42-.46l.65-.11-.1-1.07A.49.49,0,0,1,7,53.64a.48.48,0,0,1,.43-.12l1.06.2-.23-3.06a.5.5,0,0,1,.32-.5l2.14-.83,1.43-1.8a.52.52,0,0,1,.19-.14l2.6-1.16.49-1.72a.5.5,0,0,1,.48-.36h1.89l1-.13.09-.68-1.23-.55a.49.49,0,0,1-.29-.41l-.28-3a.5.5,0,0,1,.43-.54l1.13-.16-.44-2.07a.5.5,0,0,1,.22-.53l1.65-1-.43-1.24-1.21-2.24a.58.58,0,0,1-.06-.26l.31-5.49-.85-1.19-2.48.65a.5.5,0,0,1-.59-.66l.43-1.12-1-.92a.54.54,0,0,1-.16-.45l.21-1.39-1.06-.22a.51.51,0,0,1-.4-.47L12.64,18a.49.49,0,0,1,.18-.41L15,15.73a.52.52,0,0,1,.4-.11l2.81.49.52-1.59-.26-3.72-.91-1.67a.48.48,0,0,1,0-.49A.5.5,0,0,1,18,8.39l2.39,0-.12-2.26a.51.51,0,0,1,.31-.49l2.63-1.06a.49.49,0,0,1,.69.45l.14,7.5.74,3.58,1.55,1.22,2.41-1.15,2-2.81a.5.5,0,0,1,.62-.17l2.91,1.39a.49.49,0,0,1,.26.32.49.49,0,0,1-.06.41L33.25,17l0,2,1.36,1.87,3.78-.26a.5.5,0,0,1,.46.23l2,3.2,3.31,3.59a.49.49,0,0,1,.13.28l.49,4.41,2.36,2.33a.45.45,0,0,1,.14.24l1.34,5.58,4.21.36,3.29-3.35a.49.49,0,0,1,.41-.15.51.51,0,0,1,.37.23l.86,1.33,2.43-.1,0-2.31a.55.55,0,0,1,.11-.3l1.3-1.69-2.1-2.95a.51.51,0,0,1-.08-.4l1-4.21a.53.53,0,0,1,.16-.27L66,22l-.6-3.66a.5.5,0,0,1,.39-.57l3.2-.67.38-3.34a.49.49,0,0,1,.47-.45l4.25-.18a.49.49,0,0,1,.51.44l.7,6.77,4.33.36,1.73-1.81a.5.5,0,0,1,.65-.07l2.26,1.58a.49.49,0,0,1,.2.32L84.91,23a.57.57,0,0,1,0,.29l-1,2.36a.51.51,0,0,1-.37.3l-1.8.32-.81,1.46a.5.5,0,0,1-.5.26l-7.23-.91L69.5,28.81l-.21,6.33,6.44-.76a.49.49,0,0,1,.47.21l1.71,2.51a.48.48,0,0,1,0,.45l-2.54,6.86L75.54,48l2.6.49a.5.5,0,0,1,.4.42l.51,3.61a.51.51,0,0,1-.1.38l-2.16,2.78.73,3.28,5.74-.52a.54.54,0,0,1,.37.11.57.57,0,0,1,.18.35L84,61.72l4-.24a.47.47,0,0,1,.44.22l.74,1.11,2.85-.58a.5.5,0,0,1,.5.18l1.61,2.13a.52.52,0,0,1,.1.4l-.7,3.75a.51.51,0,0,1-.44.41l-2.72.25L88.56,72a.52.52,0,0,1-.41.21H85.89a.51.51,0,0,1-.44-.26L85,71.13l-.6.09-.25,1.36a.5.5,0,0,1-.46.41l-1,.06-.16,1a.49.49,0,0,1-.48.41l-1,0-.78,1.06.4,1.67a.49.49,0,0,1-.11.45.51.51,0,0,1-.44.16l-2.23-.28-.71,1a.47.47,0,0,1-.36.21L75,78.92a.53.53,0,0,1-.41-.16l-1-1L72.12,79.6a.47.47,0,0,1-.32.19L70,80.07a.52.52,0,0,1-.5-.22l-.69-1.07-2.58.45a.5.5,0,0,1-.56-.31L65.28,78l-.36.67a.45.45,0,0,1-.25.22l-1.2.49-.29,2.4a.48.48,0,0,1-.43.43l-1.89.23a.48.48,0,0,1-.4-.12.52.52,0,0,1-.17-.37V80.12l-.66,0a.49.49,0,0,1-.53-.44L59,78.65l-3.35-.25-.23,2.34a.51.51,0,0,1-.31.41l-1.71.7-2.72.53a.47.47,0,0,1-.31,0l-1.94-.91-.92.92-.28,2.41,1.72,1.63a.51.51,0,0,1,.14.26l.55,2.45a.48.48,0,0,1,0,.35l-.76,1.4.27,3.23a.51.51,0,0,1-.2.44l-1.15.88A.49.49,0,0,1,47.42,95.5Zm-1.3-2.44a.5.5,0,0,1,.38.17l1,1.09.57-.43-.26-3.11a.67.67,0,0,1,.06-.28l.74-1.36L48.12,87l-1.79-1.7a.5.5,0,0,1-.15-.42l.32-2.82a.54.54,0,0,1,.15-.3l1.29-1.3a.5.5,0,0,1,.57-.1l2.11,1,2.47-.48,1.33-.55.25-2.53a.52.52,0,0,1,.54-.45l4.24.33a.5.5,0,0,1,.46.43l.12,1,.73,0a.46.46,0,0,1,.37.13.47.47,0,0,1,.16.37v1.79l1-.11.27-2.3a.51.51,0,0,1,.31-.4L64.13,78l.79-1.46a.5.5,0,0,1,.91.06l.59,1.56,2.5-.44a.49.49,0,0,1,.51.22l.7,1.07,1.33-.2,1.67-2.15a.51.51,0,0,1,.37-.2.46.46,0,0,1,.39.16L75.1,77.9l1.43-.14.74-1.07a.48.48,0,0,1,.47-.2l1.82.23-.29-1.2a.54.54,0,0,1,.08-.41l1.06-1.44a.53.53,0,0,1,.39-.2l.84,0,.16-.94a.51.51,0,0,1,.46-.42l1-.06.25-1.34a.5.5,0,0,1,.42-.4l1.29-.19a.52.52,0,0,1,.51.26l.46.85h1.7l1.89-2.62a.49.49,0,0,1,.35-.2l2.58-.24L93.29,65,92,63.27l-2.87.58a.51.51,0,0,1-.52-.21l-.76-1.15-4.23.26a.49.49,0,0,1-.53-.46l-.24-2.83L77.17,60a.49.49,0,0,1-.53-.39l-.88-3.94a.51.51,0,0,1,.09-.41L78,52.43l-.43-3L75,48.89a.5.5,0,0,1-.41-.47l-.14-4.08a.63.63,0,0,1,0-.19l2.5-6.7-1.39-2-6.72.8a.5.5,0,0,1-.55-.52l.23-7.22a.49.49,0,0,1,.28-.44l4.06-1.9a.46.46,0,0,1,.28,0l7,.88.76-1.37a.51.51,0,0,1,.35-.25L83.05,25l.85-2-.36-2-1.73-1.21-1.6,1.68a.49.49,0,0,1-.4.15l-5-.42a.48.48,0,0,1-.45-.44l-.69-6.71-3.35.14L70,17.56a.5.5,0,0,1-.39.44l-3.08.64.56,3.46a.49.49,0,0,1-.16.46l-5.46,4.76-.88,3.84,2.17,3.06a.48.48,0,0,1,0,.59l-1.42,1.86,0,2.61a.5.5,0,0,1-.48.5l-3.18.14a.48.48,0,0,1-.44-.23l-.68-1-3,3.07a.52.52,0,0,1-.4.15l-4.8-.42a.5.5,0,0,1-.44-.38l-1.4-5.79L44,32.92a.5.5,0,0,1-.14-.31l-.49-4.42-3.26-3.54-1.92-3-3.77.26a.52.52,0,0,1-.44-.21l-1.61-2.22a.48.48,0,0,1-.1-.29l0-2.31a.43.43,0,0,1,.08-.29l.92-1.37-2-1-1.78,2.57a.45.45,0,0,1-.2.16l-2.81,1.35a.51.51,0,0,1-.53-.06L24,16.74a.55.55,0,0,1-.18-.29L23,12.6,22.9,5.74l-1.63.65.12,2.43a.51.51,0,0,1-.13.37.55.55,0,0,1-.36.15l-2.08,0,.57,1a.37.37,0,0,1,.06.21l.28,3.93a.69.69,0,0,1,0,.2L19,16.83a.51.51,0,0,1-.56.34l-3-.52-1.8,1.5.06,1.45,1.15.24a.5.5,0,0,1,.39.57L15,22l1.09,1a.5.5,0,0,1,.14.55l-.21.53,1.87-.5a.52.52,0,0,1,.54.2l1.15,1.62a.46.46,0,0,1,.09.32l-.31,5.51,1.18,2.19.58,1.7a.49.49,0,0,1-.2.58l-1.69,1.06L19.72,39a.5.5,0,0,1-.08.39.51.51,0,0,1-.34.21l-1.19.16L18.32,42l1.3.57a.5.5,0,0,1,.29.52l-.18,1.44a.51.51,0,0,1-.44.43l-1.47.19H16.24l-.45,1.58a.5.5,0,0,1-.28.32l-2.7,1.2-1.45,1.81a.41.41,0,0,1-.21.15L9.24,51l.25,3.33a.51.51,0,0,1-.6.53l-1.05-.2.08.87A.5.5,0,0,1,7.5,56l-.71.12-.11,2.1.75,1.38,1,.62a.49.49,0,0,1,.22.55l-.55,2.13a.45.45,0,0,1-.12.21l-.67.74H8.69l.55-1a.51.51,0,0,1,.44-.26H11l.77-1.12a.47.47,0,0,1,.25-.19l1.61-.56a.55.55,0,0,1,.36,0l2.59,1.12,1.33.36,1-.84a.5.5,0,0,1,.47-.1.49.49,0,0,1,.34.33L20,62.8a.48.48,0,0,1-.06.42l-1,1.58-.24,1.48,1,.48a.49.49,0,0,1,.27.51l-.19,1.59.79.4a.51.51,0,0,1,.28.48l-.15,2.48L23.39,72a.49.49,0,0,1,.41.17.5.5,0,0,1,.12.44l-.18.78,1.1-.14a.57.57,0,0,1,.31.06l1.33.74a.48.48,0,0,1,.25.52l-.32,2a.5.5,0,0,1-.31.38l-1.24.48.7,1.16a.48.48,0,0,1,.07.26v1.67a.48.48,0,0,1-.32.46l-1.21.46-.32,1.8.72.81,1.71-.28a.61.61,0,0,1,.19,0l3.14.74a.52.52,0,0,1,.25.14L31,85.85a.52.52,0,0,1,.14.39l-.25,3,.31-.15a.51.51,0,0,1,.42,0,.54.54,0,0,1,.29.32l.6,1.93,2-1a.51.51,0,0,1,.53,0l1.49,1.1,1.69-1,.08-1.26a.51.51,0,0,1,.5-.47H40.6l.55-1.15a.51.51,0,0,1,.44-.29.52.52,0,0,1,.45.26l1.34,2.41a.46.46,0,0,1,.06.23l0,2.18.83-.12a.47.47,0,0,1,.52.31l.54,1.33.32-.56a.49.49,0,0,1,.38-.24Z"></path></svg></svg> <defs><filter id="colors3699289187"><feColorMatrix type="matrix" values="0 0 0 0 0  0 0 0 0 0  0 0 0 0 0  0 0 0 1 0" class="icon-fecolormatrix"></feColorMatrix></filter> <filter id="colorsf2515213007"><feColorMatrix type="matrix" values="0 0 0 0 0.99609375  0 0 0 0 0.99609375  0 0 0 0 0.99609375  0 0 0 1 0" class="icon-fecolormatrix"></feColorMatrix></filter> <filter id="colorsb8318141447"><feColorMatrix type="matrix" values="0 0 0 0 0  0 0 0 0 0  0 0 0 0 0  0 0 0 1 0" class="icon-fecolormatrix"></feColorMatrix></filter></defs></g></g> <g transform="translate(67.00000381469727,2.8585147857666016)"><g data-gra="path-name" fill-rule="" class="tp-name iconsvg-namesvg" transform="translate(0,0)"><g transform="scale(1)"><g><path d="M40.55 2.52Q38.84 3.46 38.02 1.89L38.02 1.89Q37.21 0.45 36.77-0.27L36.77-0.27Q21.06 0.45 4.91 1.08L4.91 1.08Q4.14 1.13 3.82 0.67L3.82 0.67Q3.55 0.32 3.46-0.54L3.46-0.54Q3.33-2.29 5.08-2.38L5.08-2.38 10.3-2.52Q13.72-9 16.43-17.41L16.43-17.41 4.59-17.41Q2.88-17.41 2.88-19.13 2.88-20.84 4.59-20.84L4.59-20.84 40.5-20.84Q42.21-20.84 42.21-19.13 42.21-17.41 40.5-17.41L40.5-17.41 20.65-17.41Q17.28-8.87 13.99-2.65L13.99-2.65Q15.57-2.7 18.9-2.83L18.9-2.83Q29.38-3.19 34.7-3.42L34.7-3.42Q32.53-6.61 29.52-10.26L29.52-10.26Q28.26-11.7 30.06-12.6L30.06-12.6Q31.32-13.23 32.27-12.2L32.27-12.2Q37.93-5.94 41.49 0.32L41.49 0.32Q41.89 1.08 41.63 1.62L41.63 1.62Q41.4 2.07 40.55 2.52L40.55 2.52ZM35.95-30.87L9.36-30.87Q7.69-30.87 7.69-32.58L7.69-32.58Q7.69-34.24 9.36-34.24L9.36-34.24 35.95-34.24Q37.62-34.24 37.62-32.58L37.62-32.58Q37.62-30.87 35.95-30.87L35.95-30.87ZM77.04 3.46L77.04 3.46Q75.19 3.46 74.75 2.29L74.75 2.29Q74.38 1.4 75.06 0.9L75.06 0.9Q75.6 0.49 76.77 0.54L76.77 0.54Q79.47 0.63 80.28 0.54L80.28 0.54Q80.87 0.49 81.09 0.29 81.31 0.09 81.31-0.45L81.31-0.45 81.31-21.2Q81.31-22.14 80.37-22.14L80.37-22.14 54.67-22.14Q53.73-22.14 53.73-21.2L53.73-21.2 53.73 1.8Q53.73 3.42 52.11 3.42L52.11 3.42Q50.49 3.42 50.49 1.8L50.49 1.8 50.49-22.63Q50.49-23.8 51.21-24.52 51.93-25.24 53.1-25.24L53.1-25.24 64.98-25.24Q65.16-26.28 65.38-28.71L65.38-28.71Q65.47-29.56 65.52-30.02L65.52-30.02 49.63-30.02Q48.06-30.02 48.06-31.59 48.06-33.16 49.63-33.16L49.63-33.16 65.84-33.16Q65.88-33.62 65.92-34.47L65.92-34.47Q66.02-35.46 66.06-35.91L66.06-35.91Q66.11-37.66 68-37.48L68-37.48Q69.75-37.26 69.57-35.59L69.57-35.59Q69.53-35.19 69.41-34.38 69.3-33.57 69.25-33.16L69.25-33.16 85.45-33.16Q87.03-33.16 87.03-31.59 87.03-30.02 85.45-30.02L85.45-30.02 68.85-30.02Q68.67-28.62 68.27-26.01L68.27-26.01Q68.17-25.52 68.13-25.24L68.13-25.24 82.03-25.24Q83.2-25.24 83.92-24.52 84.64-23.8 84.64-22.63L84.64-22.63 84.64-0.45Q84.64 1.03 84.22 1.8 83.79 2.56 82.75 2.92L82.75 2.92Q81.36 3.46 77.04 3.46ZM67.41 2.56L67.41 2.56Q65.79 2.56 65.79 0.99L65.79 0.99 65.79-5.35 57.64-5.35Q56.25-5.35 56.25-6.75 56.25-8.14 57.64-8.14L57.64-8.14 65.79-8.14 65.79-12.69 58.5-12.69Q57.15-12.69 57.15-14.08L57.15-14.08Q57.15-15.43 58.5-15.43L58.5-15.43 61.83-15.43Q61.47-16.88 60.25-19.3L60.25-19.3Q59.45-20.75 60.98-21.15L60.98-21.15Q62.05-21.42 62.59-20.52L62.59-20.52Q63.41-19.13 63.86-18.13L63.86-18.13Q64.22-17.32 63.83-16.58 63.45-15.84 62.5-15.52L62.5-15.52 62.19-15.43 70.16-15.43Q71.33-17.86 72.27-20.38L72.27-20.38Q72.72-21.6 74.07-21.29L74.07-21.29Q75.64-20.88 74.97-19.3L74.97-19.3Q74.79-18.95 74.47-18.27L74.47-18.27Q73.58-16.29 73.13-15.43L73.13-15.43 76.81-15.43Q78.16-15.43 78.16-14.08L78.16-14.08Q78.16-12.69 76.81-12.69L76.81-12.69 68.98-12.69 68.98-8.14 77.49-8.14Q78.88-8.14 78.88-6.75 78.88-5.35 77.49-5.35L77.49-5.35 68.98-5.35 68.98 0.99Q68.98 2.56 67.41 2.56ZM130.37 2.29L94.68 2.29Q93.19 2.29 93.19 0.81 93.19-0.67 94.68-0.67L94.68-0.67 110.84-0.67 110.84-5.54 99.77-5.54Q98.41-5.54 98.41-6.88 98.41-8.23 99.77-8.23L99.77-8.23 110.84-8.23 110.84-12.46 99.94-12.46Q98.46-10.57 96.53-8.55L96.53-8.55Q95.36-7.47 94.14-8.37L94.14-8.37Q93.24-9.04 93.28-9.65 93.33-10.26 94.19-10.98L94.19-10.98Q97.69-14.22 100.03-18.54L100.03-18.54Q100.71-19.89 102.15-19.48L102.15-19.48Q104-18.99 103.09-17.37L103.09-17.37Q102.73-16.7 101.92-15.34L101.92-15.34 110.84-15.34 110.84-17.23Q110.84-18.95 112.55-18.95L112.55-18.95Q114.25-18.95 114.25-17.23L114.25-17.23 114.25-15.34 127.57-15.34Q129.01-15.34 129.01-13.9 129.01-12.46 127.57-12.46L127.57-12.46 114.25-12.46 114.25-8.23 125.87-8.23Q127.22-8.23 127.22-6.88 127.22-5.54 125.87-5.54L125.87-5.54 114.25-5.54 114.25-0.67 130.37-0.67Q131.85-0.67 131.85 0.81 131.85 2.29 130.37 2.29L130.37 2.29ZM124.69-19.93L100.39-19.93Q99.22-19.93 98.5-20.65 97.78-21.38 97.78-22.54L97.78-22.54 97.78-33.21Q97.78-34.38 98.5-35.1 99.22-35.82 100.39-35.82L100.39-35.82 124.69-35.82Q125.87-35.82 126.59-35.1 127.31-34.38 127.31-33.21L127.31-33.21 127.31-22.54Q127.31-21.38 126.59-20.65 125.87-19.93 124.69-19.93L124.69-19.93ZM102.02-22.63L102.02-22.63 122.98-22.63Q123.93-22.63 123.93-23.58L123.93-23.58 123.93-26.64 101.07-26.64 101.07-23.58Q101.07-22.63 102.02-22.63ZM101.07-32.17L101.07-29.2 123.93-29.2 123.93-32.17Q123.93-33.12 122.98-33.12L122.98-33.12 102.02-33.12Q101.07-33.12 101.07-32.17L101.07-32.17ZM163.62 3.33L163.62 3.33Q162 3.33 162 1.71L162 1.71 162-19.75Q158.94-14.67 155.03-10.84L155.03-10.84Q153.68-9.58 152.41-10.84L152.41-10.84Q151.69-11.56 151.72-12.17 151.74-12.78 152.55-13.46L152.55-13.46Q159.88-20.16 164.03-31.54L164.03-31.54 154.26-31.54Q152.69-31.54 152.69-33.16L152.69-33.16Q152.69-34.74 154.26-34.74L154.26-34.74 175.59-34.74Q177.16-34.74 177.16-33.16L177.16-33.16Q177.16-31.54 175.59-31.54L175.59-31.54 167.58-31.54Q166.45-28.26 165.24-25.88L165.24-25.88 165.24 1.71Q165.24 3.33 163.62 3.33ZM139.23-2.02Q137.84-1.53 137.43-3.15L137.43-3.15Q137.03-4.63 138.28-5.04L138.28-5.04Q140.22-5.67 142.47-6.48L142.47-6.48 142.47-18.59 139.41-18.59Q137.88-18.59 137.88-20.16L137.88-20.16Q137.88-21.69 139.41-21.69L139.41-21.69 142.47-21.69 142.47-31.5 138.78-31.5Q137.25-31.5 137.25-33.03 137.25-34.56 138.78-34.56L138.78-34.56 148.91-34.56Q150.44-34.56 150.44-33.03 150.44-31.5 148.91-31.5L148.91-31.5 145.57-31.5 145.57-21.69 147.96-21.69Q149.49-21.69 149.49-20.16L149.49-20.16Q149.49-18.59 147.96-18.59L147.96-18.59 145.57-18.59 145.57-7.56 148.5-8.59Q150.07-9.13 150.34-7.47L150.34-7.47Q150.57-6.17 149.31-5.67L149.31-5.67Q143.78-3.6 139.23-2.02L139.23-2.02ZM175.81-11.25Q175.05-10.66 174.56-10.66L174.56-10.66Q173.97-10.71 173.52-11.47L173.52-11.47Q172.66-12.91 170.41-15.93L170.41-15.93Q168.48-18.5 166.32-21.06L166.32-21.06Q165.28-22.23 166.63-23.18L166.63-23.18Q167.76-23.98 168.7-22.9L168.7-22.9Q173.47-17.55 176.4-13.28L176.4-13.28Q176.81-12.64 176.67-12.15L176.67-12.15Q176.49-11.74 175.81-11.25L175.81-11.25Z" transform="translate(-2.880000114440918, 37.496788024902344)"></path></g> <!----> <!----> <!----> <!----> <!----> <!----> <!----></g></g> <g data-gra="path-slogan" fill-rule="" class="tp-slogan iconsvg-slogansvg" fill="#000000" transform="translate(28.264999389648438,46.956787109375)"><!----> <!----> <g transform="scale(1, 1)"><g transform="scale(1)"><path d="M7.83-8.58L4.59-3.47L4.59 0L3.42 0L3.42-3.47L0.19-8.58L1.55-8.58L3.98-4.45L6.47-8.58L7.83-8.58ZM14.53-3.19L14.53-8.58L15.70-8.58L15.70-3.05Q15.56 0.05 12.19 0.14L12.19 0.14Q9.05 0.05 8.91-2.86L8.91-2.86L8.91-8.58L10.08-8.58L10.08-3.19Q10.13-0.84 12.23-0.80L12.23-0.80Q14.53-0.84 14.53-3.19L14.53-3.19ZM18.89-8.58L23.20-1.64L23.20-8.58L24.33-8.58L24.33 0L23.02 0L18.66-6.94L18.61-6.94L18.61 0L17.48 0L17.48-8.58L18.89-8.58ZM27.52-8.58L31.83-1.64L31.83-8.58L32.95-8.58L32.95 0L31.64 0L27.28-6.94L27.23-6.94L27.23 0L26.11 0L26.11-8.58L27.52-8.58ZM40.41 0L39.56-2.48L36.09-2.48L35.20 0L34.03 0L37.27-8.58L38.58-8.58L41.67 0L40.41 0ZM37.83-7.31L36.47-3.52L39.14-3.52L37.88-7.31L37.83-7.31ZM44.11-8.58L48.42-1.64L48.42-8.58L49.55-8.58L49.55 0L48.23 0L43.88-6.94L43.83-6.94L43.83 0L42.70 0L42.70-8.58L44.11-8.58ZM60.94-6.09L60.94-6.09L59.86-6.09Q59.77-7.73 57.70-7.83L57.70-7.83Q55.78-7.78 55.78-6.33L55.78-6.33Q55.78-5.39 56.81-5.25L56.81-5.25L59.25-4.69Q61.17-4.22 61.17-2.34L61.17-2.34Q61.13 0.05 57.80 0.14L57.80 0.14Q55.97 0.14 55.22-0.61L55.22-0.61Q54.28-1.31 54.33-2.77L54.33-2.77L55.45-2.77Q55.50-0.80 57.80-0.75L57.80-0.75Q60.05-0.80 60.09-2.20L60.09-2.20Q60.28-3.38 58.22-3.75L58.22-3.75L56.44-4.13Q54.61-4.64 54.61-6.19L54.61-6.19Q54.75-8.72 57.61-8.81L57.61-8.81Q60.84-8.81 60.94-6.09ZM64.83-7.59L61.92-7.59L61.92-8.58L68.86-8.58L68.86-7.59L65.95-7.59L65.95 0L64.83 0L64.83-7.59ZM75.56 0L74.72-2.48L71.25-2.48L70.36 0L69.19 0L72.42-8.58L73.73-8.58L76.83 0L75.56 0ZM72.98-7.31L71.63-3.52L74.30-3.52L73.03-7.31L72.98-7.31ZM81.98-3.70L79.17-3.70L79.17 0L78 0L78-8.58L81.98-8.58Q84.84-8.58 84.84-6.28L84.84-6.28Q84.84-4.88 83.63-4.22L83.63-4.22Q84.66-3.94 84.66-2.58L84.66-2.58L84.75-1.03Q84.70-0.38 85.17-0.19L85.17-0.19L85.17 0L83.72 0Q83.58-0.61 83.53-2.16L83.53-2.16Q83.58-3.70 81.98-3.70L81.98-3.70ZM82.08-7.64L79.17-7.64L79.17-4.69L81.89-4.69Q83.63-4.69 83.63-6.19L83.63-6.19Q83.63-7.64 82.08-7.64L82.08-7.64ZM93.94-3.70L91.13-3.70L91.13 0L89.95 0L89.95-8.58L93.94-8.58Q96.80-8.58 96.80-6.28L96.80-6.28Q96.80-4.88 95.58-4.22L95.58-4.22Q96.61-3.94 96.61-2.58L96.61-2.58L96.70-1.03Q96.66-0.38 97.13-0.19L97.13-0.19L97.13 0L95.67 0Q95.53-0.61 95.48-2.16L95.48-2.16Q95.53-3.70 93.94-3.70L93.94-3.70ZM94.03-7.64L91.13-7.64L91.13-4.69L93.84-4.69Q95.58-4.69 95.58-6.19L95.58-6.19Q95.58-7.64 94.03-7.64L94.03-7.64ZM98.63-8.58L99.80-8.58L99.80 0L98.63 0L98.63-8.58ZM103.17-8.58L107.48-1.64L107.48-8.58L108.61-8.58L108.61 0L107.30 0L102.94-6.94L102.89-6.94L102.89 0L101.77 0L101.77-8.58L103.17-8.58ZM116.81-3.61L114.19-3.61L114.19-4.59L117.94-4.59L117.94 0L117.19 0L116.91-1.08Q115.92 0.09 114.09 0.14L114.09 0.14Q112.36 0.14 111.42-0.75L111.42-0.75Q110.02-2.06 110.06-4.36L110.06-4.36Q110.39-8.63 114.14-8.81L114.14-8.81Q117.33-8.63 117.80-6L117.80-6L116.67-6Q116.20-7.78 114.09-7.83L114.09-7.83Q111.42-7.64 111.28-4.31L111.28-4.31Q111.28-0.75 114.14-0.75L114.14-0.75Q115.17-0.75 115.92-1.31L115.92-1.31Q116.86-2.06 116.81-3.61L116.81-3.61Z" transform="translate(-0.1875, 8.8125)"></path></g></g></g></g></g><defs v-gra="od"></defs></svg>